<svg xmlns="http://www.w3.org/2000/svg" width="390" height="980" viewBox="0 0 390 980"><rect x="0.0" y="0.0" width="390.0" height="980.0" rx="26" fill="#dfe7ef" stroke="#dfe7ef"/>
<rect x="10.0" y="10.0" width="370.0" height="960.0" rx="20" fill="#f6f8fb" stroke="#9faebd"/>
<rect x="156.0" y="21.0" width="78.0" height="5.0" rx="3" fill="#172333" stroke="#172333"/>
<rect x="286.0" y="34.0" width="58.0" height="24.0" rx="12" fill="#fff7e6" stroke="#f2c879"/>
<text x="300.0" y="51.0" font-size="12" font-weight="700" fill="#9a6400" font-family="PingFang SC, Microsoft YaHei, Arial">变更</text>
<text x="26.0" y="52.0" font-size="16" font-weight="750" fill="#24364b" font-family="PingFang SC, Microsoft YaHei, Arial">Layout group desktop widget</text>
<rect x="24.0" y="70.0" width="342.0" height="12.0" rx="20.0" fill="#ffffff" stroke="#e1e8ef"/>
<text x="24.0" y="109.0" font-size="23.0" font-weight="700" fill="#000000" font-family="PingFang SC, Microsoft YaHei, Arial">0</text>
<text x="200.0" y="103.0" font-size="11.0" font-weight="500" fill="#000000" font-family="PingFang SC, Microsoft YaHei, Arial">暂无团队数据</text>
<text x="24.0" y="183.0" font-size="11.0" font-weight="500" fill="#666666" font-family="PingFang SC, Microsoft YaHei, Arial">开启同步团队</text>
<text x="24.0" y="219.0" font-size="11.0" font-weight="500" fill="#6880bf" font-family="PingFang SC, Microsoft YaHei, Arial">查看</text>
<text x="24.0" y="258.0" font-size="14.0" font-weight="500" fill="#6880bf" font-family="PingFang SC, Microsoft YaHei, Arial">›</text>
<rect x="24.0" y="273.0" width="55.0" height="55.0" rx="16" fill="#eef6ff" stroke="#bdd7f3"/>
<text x="34.0" y="304.5" font-size="10" font-weight="500" fill="#42698d" font-family="PingFang SC, Microsoft YaHei, Arial">image_app_widget_…</text>
<rect x="200.0" y="273.0" width="55.0" height="55.0" rx="16" fill="#eef6ff" stroke="#bdd7f3"/>
<text x="210.0" y="304.5" font-size="10" font-weight="500" fill="#42698d" font-family="PingFang SC, Microsoft YaHei, Arial">ivSecondaryPhoto</text>
<rect x="24.0" y="361.0" width="36.0" height="36.0" rx="16" fill="#eef6ff" stroke="#bdd7f3"/>
<text x="34.0" y="383.0" font-size="10" font-weight="500" fill="#42698d" font-family="PingFang SC, Microsoft YaHei, Arial">ivWidgetBadge</text>
<rect x="24.0" y="70.0" width="342.0" height="345.0" rx="20.0" fill="none" stroke="#e1e8ef"/>
<text x="24.0" y="958.0" font-size="11" font-weight="500" fill="#6d7b8a" font-family="PingFang SC, Microsoft YaHei, Arial">新版静态还原 · 工作组/桌面组件</text></svg>
